<svg xmlns="http://www.w3.org/2000/svg" width="22" height="24" viewBox="0 0 22 24">
  <defs>
    <style>
      .cls-1 {
        fill: #fff;
        fill-rule: evenodd;
      }
    </style>
  </defs>
  <path id="Forma_1_copy_6" data-name="Forma 1 copy 6" class="cls-1" d="M1012.55,504.182h3.85v3.273a0.537,0.537,0,0,0,.15.392,0.567,0.567,0,0,0,.4.154h2.87a0.56,0.56,0,0,0,.39-0.154,0.507,0.507,0,0,0,.16-0.392v-3.273h8.68a0.554,0.554,0,0,0,.4-0.154,0.535,0.535,0,0,0,.15-0.391v-2.182a0.539,0.539,0,0,0-.15-0.392,0.558,0.558,0,0,0-.4-0.154h-8.68V498.9h5.84a7.789,7.789,0,0,0,5.62-2.079,7.727,7.727,0,0,0,0-10.738,7.794,7.794,0,0,0-5.62-2.08h-9.26a0.561,0.561,0,0,0-.4.153,0.54,0.54,0,0,0-.15.392v10.722h-3.85a0.533,0.533,0,0,0-.55.546v2.54a0.536,0.536,0,0,0,.15.391,0.557,0.557,0,0,0,.4.153h3.85v2.012h-3.85a0.558,0.558,0,0,0-.4.154,0.537,0.537,0,0,0-.15.392v2.182a0.535,0.535,0,0,0,.15.391A0.554,0.554,0,0,0,1012.55,504.182Zm7.82-16.55h5.5a4.117,4.117,0,0,1,2.94,1.056,3.963,3.963,0,0,1,0,5.522,4.114,4.114,0,0,1-2.94,1.057h-5.5v-7.635Z" transform="translate(-1012 -484)"/>
</svg>
